<svg xmlns="http://www.w3.org/2000/svg" viewBox="0 0 32 32"><title>setting android app aplication phone</title><g id="setting_android_app_aplication_phone" data-name="setting android app aplication phone"><path d="M30.56,8.47a8,8,0,0,0-7-7,64.29,64.29,0,0,0-15.06,0,8,8,0,0,0-7,7,64.29,64.29,0,0,0,0,15.06,8,8,0,0,0,7,7,64.29,64.29,0,0,0,15.06,0,8,8,0,0,0,7-7A64.29,64.29,0,0,0,30.56,8.47Zm-2,14.83a6,6,0,0,1-5.28,5.28,63.65,63.65,0,0,1-14.6,0A6,6,0,0,1,3.42,23.3a63.65,63.65,0,0,1,0-14.6A6,6,0,0,1,8.7,3.42a63.65,63.65,0,0,1,14.6,0A6,6,0,0,1,28.58,8.7,63.65,63.65,0,0,1,28.58,23.3Z"/><path d="M25.43,15.12l-1.56-.3a7.25,7.25,0,0,0-.25-1l1.22-1A2,2,0,0,0,25.11,10L23.83,8.43A2,2,0,0,0,21,8.17l-1.2,1a6.72,6.72,0,0,0-.95-.44l0-1.59a2,2,0,0,0-2-2l-2,0a2,2,0,0,0-2,2l.06,1.57a9.38,9.38,0,0,0-1,.48l-1.26-1a2,2,0,0,0-2.8.37L6.66,10.34A2,2,0,0,0,7,13.14l1.27.94a7.85,7.85,0,0,0-.21,1l-1.54.38a2,2,0,0,0-1.46,2.43l.48,1.94A2,2,0,0,0,8,21.32l1.52-.41a6.66,6.66,0,0,0,.68.8l-.67,1.46a2,2,0,0,0,1,2.65l1.82.83a2,2,0,0,0,2.65-1l.66-1.44h.51l.52,0,.71,1.41a2,2,0,0,0,2.69.88l1.79-.9a2,2,0,0,0,.88-2.69L22,21.5a5.86,5.86,0,0,0,.63-.83h0l1.56.32a2,2,0,0,0,2.36-1.55l.41-2A2,2,0,0,0,25.43,15.12ZM24.61,19l-1.56-.33h0a2,2,0,0,0-2.05.83,6,6,0,0,1-.49.64,2,2,0,0,0-.27,2.2L21,23.81l-1.78.9-1-2.05a1,1,0,0,0-1.07-.54,5.9,5.9,0,0,1-.95.11,6.86,6.86,0,0,1-1-.07,1,1,0,0,0-1,.58l-1,2.09L11.35,24,12,22.55a2,2,0,0,0-.36-2.19,6.21,6.21,0,0,1-.52-.63A2,2,0,0,0,9.06,19l-1.55.39L7,17.43l1.55-.38a2,2,0,0,0,1.49-1.65,5.27,5.27,0,0,1,.16-.79,2,2,0,0,0-.72-2.09l-1.26-1L9.47,10l1.26,1a2,2,0,0,0,2.21.14,4.84,4.84,0,0,1,.72-.36,2,2,0,0,0,1.2-1.87l0-1.59,2,0,0,1.59a2,2,0,0,0,1.26,1.82,6.16,6.16,0,0,1,.74.33,2,2,0,0,0,2.21-.23l1.22-1,1.28,1.54-1.23,1a2,2,0,0,0-.63,2.12,5.35,5.35,0,0,1,.19.79,2,2,0,0,0,1.56,1.58l1.56.33Z"/><path d="M15.92,12A4,4,0,0,0,16,20h.08a4,4,0,0,0-.16-8ZM18,16a2,2,0,1,1-2-2h0a2,2,0,0,1,2,2Z"/></g></svg>