<svg xmlns="http://www.w3.org/2000/svg" viewBox="0 0 32 32"><title>gallery android app aplication phone</title><g id="gallery_android_app_aplication_phone" data-name="gallery android app aplication phone"><circle cx="21" cy="11" r="1"/><path d="M21,13a1,1,0,0,0-1,1v2a1,1,0,0,0,2,0V14A1,1,0,0,0,21,13Z"/><path d="M21,5a1,1,0,0,0-1,1V8a1,1,0,0,0,2,0V6A1,1,0,0,0,21,5Z"/><path d="M26,10H24a1,1,0,0,0,0,2h2a1,1,0,0,0,0-2Z"/><path d="M18,10H16a1,1,0,0,0,0,2h2a1,1,0,0,0,0-2Z"/><path d="M30.56,8.47a8,8,0,0,0-7-7,64.29,64.29,0,0,0-15.06,0,8,8,0,0,0-7,7,64.29,64.29,0,0,0,0,15.06,8,8,0,0,0,7,7,64.84,64.84,0,0,0,15.06,0,8,8,0,0,0,7-7A64.29,64.29,0,0,0,30.56,8.47ZM8.7,28.58A6,6,0,0,1,4,25.32L12,15.63l9.6,13.1A63.52,63.52,0,0,1,8.7,28.58ZM28.58,23.3a6,6,0,0,1-4.75,5.17s0,0,0-.06l-11-15a1,1,0,0,0-1.58,0L3.39,22.94a63.37,63.37,0,0,1,0-14.24A6,6,0,0,1,8.7,3.42a63.65,63.65,0,0,1,14.6,0A6,6,0,0,1,28.58,8.7,63.65,63.65,0,0,1,28.58,23.3Z"/></g></svg>