<svg xmlns="http://www.w3.org/2000/svg" viewBox="0 0 32 32"><title>preference android app aplication phone</title><g id="preference_android_app_aplication_phone" data-name="preference android app aplication phone"><path d="M30.56,8.47a8,8,0,0,0-7-7,64.29,64.29,0,0,0-15.06,0,8,8,0,0,0-7,7,64.29,64.29,0,0,0,0,15.06,8,8,0,0,0,7,7,64.29,64.29,0,0,0,15.06,0,8,8,0,0,0,7-7A64.29,64.29,0,0,0,30.56,8.47Zm-2,14.83a6,6,0,0,1-5.28,5.28,63.65,63.65,0,0,1-14.6,0A6,6,0,0,1,3.42,23.3a63.65,63.65,0,0,1,0-14.6A6,6,0,0,1,8.7,3.42a63.65,63.65,0,0,1,14.6,0A6,6,0,0,1,28.58,8.7,63.65,63.65,0,0,1,28.58,23.3Z"/><path d="M17,10V7a1,1,0,0,0-2,0v3a2,2,0,0,0-2,2v2a2,2,0,0,0,2,2v9a1,1,0,0,0,2,0V16a2,2,0,0,0,2-2V12A2,2,0,0,0,17,10Zm0,4H15V12h2Z"/><path d="M25,15V7a1,1,0,0,0-2,0v8a2,2,0,0,0-2,2v2a2,2,0,0,0,2,2v4a1,1,0,0,0,2,0V21a2,2,0,0,0,2-2V17A2,2,0,0,0,25,15Zm0,4H23V17h2Z"/><path d="M9,18V7A1,1,0,0,0,7,7V18a2,2,0,0,0-2,2v2a2,2,0,0,0,2,2v1a1,1,0,0,0,2,0V24a2,2,0,0,0,2-2V20A2,2,0,0,0,9,18Zm0,4H7V20H9Z"/></g></svg>