<svg xmlns="http://www.w3.org/2000/svg" viewBox="0 0 32 32"><title>thumb up android app aplication phone</title><g id="thumb_up_android_app_aplication_phone" data-name="thumb up android app aplication phone"><path d="M27,11H18.48L19,9.8A6.42,6.42,0,0,0,13,1a1,1,0,0,0-.93.63L8.32,11H5a3,3,0,0,0-3,3V28a3,3,0,0,0,3,3H23.17a3,3,0,0,0,2.12-.88l3.83-3.83A3,3,0,0,0,30,24.17V14A3,3,0,0,0,27,11ZM4,28V14a1,1,0,0,1,1-1H8V29H5A1,1,0,0,1,4,28Zm24-3.83a1,1,0,0,1-.29.71l-3.83,3.83a1.05,1.05,0,0,1-.71.29H10V12.19l3.66-9.14a4.31,4.31,0,0,1,3,1.89,4.38,4.38,0,0,1,.44,4.12l-1,2.57A1,1,0,0,0,17,13H27a1,1,0,0,1,1,1Z"/></g></svg>