<svg xmlns="http://www.w3.org/2000/svg" viewBox="0 0 32 32"><title>message android app aplication phone</title><g id="message_android_app_aplication_phone" data-name="message android app aplication phone"><path d="M30.56,8.47a8,8,0,0,0-7-7,64.29,64.29,0,0,0-15.06,0,8,8,0,0,0-7,7,64.29,64.29,0,0,0,0,15.06,8,8,0,0,0,7,7,64.29,64.29,0,0,0,15.06,0,8,8,0,0,0,7-7A64.29,64.29,0,0,0,30.56,8.47ZM7,15H3a63,63,0,0,1,.39-6.3A5.44,5.44,0,0,1,3.57,8H16v3H15a2,2,0,0,0-2,2v2H11a1,1,0,0,0-.71.29L8,17.59V16A1,1,0,0,0,7,15Zm8-2H28.91a62.87,62.87,0,0,1-.05,7H24a1,1,0,0,0-1,1v1.59l-2.29-2.3A1,1,0,0,0,20,20H15ZM8.7,3.42a63.65,63.65,0,0,1,14.6,0A6,6,0,0,1,28.58,8.7c.09.76.14,1.53.2,2.3H18V8a2,2,0,0,0-2-2H4.44A6,6,0,0,1,8.7,3.42ZM23.3,28.58a63.65,63.65,0,0,1-14.6,0A6,6,0,0,1,3.42,23.3,63,63,0,0,1,3,17H6v3a1,1,0,0,0,1.71.71L11.41,17H13v3a2,2,0,0,0,2,2h4.59l3.7,3.71A1,1,0,0,0,25,25V22h3.69c0,.43-.06.87-.11,1.3A6,6,0,0,1,23.3,28.58Z"/></g></svg>