<svg xmlns="http://www.w3.org/2000/svg" viewBox="0 0 32 32"><title>to do list android app aplication phone</title><g id="to_do_list_android_app_aplication_phone" data-name="to do list android app aplication phone"><path d="M30.56,8.47a8,8,0,0,0-7-7,64.29,64.29,0,0,0-15.06,0,8,8,0,0,0-7,7,64.29,64.29,0,0,0,0,15.06,8,8,0,0,0,7,7,64.29,64.29,0,0,0,15.06,0,8,8,0,0,0,7-7A64.29,64.29,0,0,0,30.56,8.47Zm-2,14.83a6,6,0,0,1-5.28,5.28,63.65,63.65,0,0,1-14.6,0A6,6,0,0,1,3.42,23.3a63.65,63.65,0,0,1,0-14.6A6,6,0,0,1,8.7,3.42a63.65,63.65,0,0,1,14.6,0A6,6,0,0,1,28.58,8.7,63.65,63.65,0,0,1,28.58,23.3Z"/><path d="M11,5H9A2,2,0,0,0,7,7V9a2,2,0,0,0,2,2h2a2,2,0,0,0,2-2V7A2,2,0,0,0,11,5ZM9,9V7h2V9Z"/><path d="M11,13H9a2,2,0,0,0-2,2v2a2,2,0,0,0,2,2h2a2,2,0,0,0,2-2V15A2,2,0,0,0,11,13ZM9,17V15h2v2Z"/><path d="M11,21H9a2,2,0,0,0-2,2v2a2,2,0,0,0,2,2h2a2,2,0,0,0,2-2V23A2,2,0,0,0,11,21ZM9,25V23h2v2Z"/><path d="M24,7H16a1,1,0,0,0,0,2h8a1,1,0,0,0,0-2Z"/><path d="M24,15H16a1,1,0,0,0,0,2h8a1,1,0,0,0,0-2Z"/><path d="M24,23H16a1,1,0,0,0,0,2h8a1,1,0,0,0,0-2Z"/></g></svg>