<svg xmlns="http://www.w3.org/2000/svg" viewBox="0 0 32 32"><title>picture android app aplication phone</title><g id="picture_android_app_aplication_phone" data-name="picture android app aplication phone"><path d="M30.56,8.47a8,8,0,0,0-7-7,64.29,64.29,0,0,0-15.06,0,8,8,0,0,0-7,7,64.29,64.29,0,0,0,0,15.06,8,8,0,0,0,7,7,64.29,64.29,0,0,0,15.06,0,8,8,0,0,0,7-7A64.29,64.29,0,0,0,30.56,8.47ZM3.42,23.3a63.65,63.65,0,0,1,0-14.6A6,6,0,0,1,8.7,3.42a63.65,63.65,0,0,1,14.6,0A6,6,0,0,1,28.58,8.7a64,64,0,0,1,.06,13.91l-7.8-12.15a1,1,0,0,0-1.67,0L7.31,28.23A6,6,0,0,1,3.42,23.3ZM23.3,28.58a63.59,63.59,0,0,1-13.86.06L20,12.83,28,25.3A6,6,0,0,1,23.3,28.58Z"/><path d="M10,14a4,4,0,1,0-4-4A4,4,0,0,0,10,14Zm0-6a2,2,0,1,1-2,2A2,2,0,0,1,10,8Z"/></g></svg>