<svg xmlns="http://www.w3.org/2000/svg" viewBox="0 0 32 32"><title>memo android app aplication phone</title><g id="memo_android_app_aplication_phone" data-name="memo android app aplication phone"><path d="M30.56,8.45a8,8,0,0,0-7-7,67.67,67.67,0,0,0-15.06,0,8,8,0,0,0-7,7,64.46,64.46,0,0,0,0,15.08,8,8,0,0,0,7,7,64.29,64.29,0,0,0,15.06,0,8,8,0,0,0,7-7A64.46,64.46,0,0,0,30.56,8.45ZM24,3.55V10l-2.4-1.8a1,1,0,0,0-1.2,0L18,10V3c1.77.06,3.54.16,5.3.37C23.54,3.44,23.77,3.5,24,3.55ZM3.42,23.3a63.74,63.74,0,0,1,0-14.61A6,6,0,0,1,6,4.42V27.56A6,6,0,0,1,3.42,23.3Zm25.16,0a6,6,0,0,1-5.28,5.27,62.54,62.54,0,0,1-14.6,0,4.13,4.13,0,0,1-.7-.14V3.55c.23,0,.46-.11.7-.14A63.56,63.56,0,0,1,16,3v9a1,1,0,0,0,1.6.8L21,10.24l3.4,2.55A1,1,0,0,0,26,12V4.42a6,6,0,0,1,2.58,4.27A63.74,63.74,0,0,1,28.58,23.3Z"/><path d="M25,15H12a1,1,0,0,0,0,2H25a1,1,0,0,0,0-2Z"/><path d="M25,20H12a1,1,0,0,0,0,2H25a1,1,0,0,0,0-2Z"/><path d="M19,25H12a1,1,0,0,0,0,2h7a1,1,0,0,0,0-2Z"/></g></svg>